<?xml version="1.0" encoding="UTF-8"?>
<!DOCTYPE svg PUBLIC "-//W3C//DTD SVG 1.1//EN" "http://www.w3.org/Graphics/SVG/1.1/DTD/svg11.dtd">
<svg xmlns="http://www.w3.org/2000/svg" xmlns:xlink="http://www.w3.org/1999/xlink" version="1.1" width="311px" height="331px" viewBox="-0.5 -0.5 311 331"><defs/><g><path d="M 12 270 L 310 270 L 310 318 C 310 324.63 304.63 330 298 330 L 0 330 L 0 282 C 0 275.37 5.37 270 12 270 Z" fill="#4505b0" stroke="rgb(0, 0, 0)" stroke-miterlimit="10" pointer-events="all"/><path d="M 12 50 L 310 50 L 310 98 C 310 104.63 304.63 110 298 110 L 0 110 L 0 62 C 0 55.37 5.37 50 12 50 Z" fill="#4506b0" stroke="rgb(0, 0, 0)" stroke-miterlimit="10" pointer-events="all"/><path d="M 10.36 288.37 C 11.27 284.99 13.54 282.17 16.62 280.6 C 19.69 279.04 23.28 278.88 26.48 280.17 C 31.13 282.47 34.74 286.51 36.55 291.45 C 44.86 267.41 57.49 245.16 73.81 225.83 C 78.44 221.55 84.91 220 90.93 221.73 C 92.47 221.98 93.77 223.01 94.39 224.47 C 95 225.93 94.84 227.6 93.95 228.91 C 71.77 254.4 55.28 284.48 45.61 317.08 C 39.91 320 33.18 320 27.48 317.08 C 23.18 307.34 17.4 298.35 10.36 290.42 C 10 289.79 10 289.01 10.36 288.37 Z" fill="rgb(255, 255, 255)" stroke="none" pointer-events="all"/><path d="M 12 160 L 310 160 L 310 208 C 310 214.63 304.63 220 298 220 L 0 220 L 0 172 C 0 165.37 5.37 160 12 160 Z" fill="#4506b0" stroke="rgb(0, 0, 0)" stroke-miterlimit="10" pointer-events="all"/><path d="M 10.36 178.37 C 11.27 174.99 13.54 172.17 16.62 170.6 C 19.69 169.04 23.28 168.88 26.48 170.17 C 31.13 172.47 34.74 176.51 36.55 181.45 C 44.86 157.41 57.49 135.16 73.81 115.83 C 78.44 111.55 84.91 110 90.93 111.73 C 92.47 111.98 93.77 113.01 94.39 114.47 C 95 115.93 94.84 117.6 93.95 118.91 C 71.77 144.4 55.28 174.48 45.61 207.08 C 39.91 210 33.18 210 27.48 207.08 C 23.18 197.34 17.4 188.35 10.36 180.42 C 10 179.79 10 179.01 10.36 178.37 Z" fill="rgb(255, 255, 255)" stroke="none" pointer-events="all"/><path d="M 10.36 68.37 C 11.27 64.99 13.54 62.17 16.62 60.6 C 19.69 59.04 23.28 58.88 26.48 60.17 C 31.13 62.47 34.74 66.51 36.55 71.45 C 44.86 47.41 57.49 25.16 73.81 5.83 C 78.44 1.55 84.91 0 90.93 1.73 C 92.47 1.98 93.77 3.01 94.39 4.47 C 95 5.93 94.84 7.6 93.95 8.91 C 71.77 34.4 55.28 64.48 45.61 97.08 C 39.91 100 33.18 100 27.48 97.08 C 23.18 87.34 17.4 78.35 10.36 70.42 C 10 69.79 10 69.01 10.36 68.37 Z" fill="#9933ff" stroke="none" pointer-events="all"/></g></svg>