{
	"asset":{
		"generator":"Khronos glTF Blender I/O v3.5.30",
		"version":"2.0"
	},
	"scene":0,
	"scenes":[
		{
			"name":"Scene",
			"nodes":[
				0,
				1
			]
		}
	],
	"nodes":[
		{
			"mesh":0,
			"name":"trrain"
		},
		{
			"mesh":1,
			"name":"trrain_plane"
		}
	],
	"materials":[
		{
			"doubleSided":true,
			"name":"Dots Stroke",
			"pbrMetallicRoughness":{
				"baseColorFactor":[
					0.800000011920929,
					0.800000011920929,
					0.800000011920929,
					1
				],
				"metallicFactor":0,
				"roughnessFactor":0.5
			}
		}
	],
	"meshes":[
		{
			"name":"trrain",
			"primitives":[
				{
					"attributes":{
						"POSITION":0,
						"NORMAL":1
					},
					"indices":2,
					"material":0
				}
			]
		},
		{
			"name":"trrain_plane",
			"primitives":[
				{
					"attributes":{
						"POSITION":3,
						"NORMAL":4
					},
					"indices":5
				}
			]
		}
	],
	"accessors":[
		{
			"bufferView":0,
			"componentType":5126,
			"count":44000,
			"max":[
				1.440000057220459,
				0.4255496561527252,
				2
			],
			"min":[
				-1.440000057220459,
				-0.45136529207229614,
				-2
			],
			"type":"VEC3"
		},
		{
			"bufferView":1,
			"componentType":5126,
			"count":44000,
			"type":"VEC3"
		},
		{
			"bufferView":2,
			"componentType":5123,
			"count":261486,
			"type":"SCALAR"
		},
		{
			"bufferView":3,
			"componentType":5126,
			"count":4,
			"max":[
				1.440000057220459,
				0.009999999776482582,
				2
			],
			"min":[
				-1.440000057220459,
				0.009999999776482582,
				-2
			],
			"type":"VEC3"
		},
		{
			"bufferView":4,
			"componentType":5126,
			"count":4,
			"type":"VEC3"
		},
		{
			"bufferView":5,
			"componentType":5123,
			"count":6,
			"type":"SCALAR"
		}
	],
	"bufferViews":[
		{
			"buffer":0,
			"byteLength":528000,
			"byteOffset":0,
			"target":34962
		},
		{
			"buffer":0,
			"byteLength":528000,
			"byteOffset":528000,
			"target":34962
		},
		{
			"buffer":0,
			"byteLength":522972,
			"byteOffset":1056000,
			"target":34963
		},
		{
			"buffer":0,
			"byteLength":48,
			"byteOffset":1578972,
			"target":34962
		},
		{
			"buffer":0,
			"byteLength":48,
			"byteOffset":1579020,
			"target":34962
		},
		{
			"buffer":0,
			"byteLength":12,
			"byteOffset":1579068,
			"target":34963
		}
	],
	"buffers":[
		{
			"byteLength":1579080,
			"uri":"land.bin"
		}
	]
}
